HIERARCHY
ROOT root
{
	OFFSET	0	13.1	24.9
	CHANNELS 6  Xposition Yposition Zposition Xrotation Yrotation Zrotation
	JOINT spine_1
	{
		OFFSET	0	9.99999	0
		CHANNELS 3  Xrotation Yrotation Zrotation
		JOINT spine_2
		{
			OFFSET	0	112	-10
			CHANNELS 3  Xrotation Yrotation Zrotation
			JOINT spine_3
			{
				OFFSET	0	206.5	19.3
				CHANNELS 3  Xrotation Yrotation Zrotation
				JOINT spine_4
				{
					OFFSET	0	110.4	14.6
					CHANNELS 3  Xrotation Yrotation Zrotation
					JOINT neck_1
					{
						OFFSET	0	71.8	-50.3
						CHANNELS 3  Xrotation Yrotation Zrotation
						JOINT neck_2
						{
							OFFSET	0	86.2	-25.8
							CHANNELS 3  Xrotation Yrotation Zrotation
							JOINT head_ee
							{
								OFFSET	0	179.8	-8.7
								CHANNELS 3  Xrotation Yrotation Zrotation
								End Site
								{
									OFFSET	1	0	0
								}
							}
						}
					}
					JOINT left_clavicle
					{
						OFFSET	-43.2	22.4	-70.8
						CHANNELS 3  Xrotation Yrotation Zrotation
						JOINT left_shoulder
						{
							OFFSET	-93.9	-5.79999	48.7
							CHANNELS 3  Xrotation Yrotation Zrotation
							JOINT left_elbow
							{
								OFFSET	-291.4	-30.8	15.2
								CHANNELS 3  Xrotation Yrotation Zrotation
								JOINT left_lowarm_twist
								{
									OFFSET	-110.7	-3.89999	13.6
									CHANNELS 3  Xrotation Yrotation Zrotation
									JOINT left_hand
									{
										OFFSET	-110.7	-3.89999	13.6
										CHANNELS 3  Xrotation Yrotation Zrotation
										JOINT left_ee
										{
											OFFSET	-80.8	-5.10001	12.1
											CHANNELS 3  Xrotation Yrotation Zrotation
											End Site
											{
												OFFSET	1	0	0
											}
										}
									}
								}
							}
						}
					}
					JOINT right_clavicle
					{
						OFFSET	43.2	22.4	-70.8
						CHANNELS 3  Xrotation Yrotation Zrotation
						JOINT right_shoulder
						{
							OFFSET	93.9	-5.79999	48.7
							CHANNELS 3  Xrotation Yrotation Zrotation
							JOINT right_elbow
							{
								OFFSET	291.4	-30.8	15.2
								CHANNELS 3  Xrotation Yrotation Zrotation
								JOINT right_lowarm_twist
								{
									OFFSET	110.7	-3.89999	13.6
									CHANNELS 3  Xrotation Yrotation Zrotation
									JOINT right_hand
									{
										OFFSET	110.7	-3.89999	13.6
										CHANNELS 3  Xrotation Yrotation Zrotation
										JOINT right_ee
										{
											OFFSET	80.8	-5.10001	12.1
											CHANNELS 3  Xrotation Yrotation Zrotation
											End Site
											{
												OFFSET	1	0	0
											}
										}
									}
								}
							}
						}
					}
				}
			}
		}
	}
	JOINT left_hip
	{
		OFFSET	-82.8	-127.5	0.300001
		CHANNELS 3  Xrotation Yrotation Zrotation
		JOINT left_knee
		{
			OFFSET	-28.2	-396.7	2.2
			CHANNELS 3  Xrotation Yrotation Zrotation
			JOINT left_ankle
			{
				OFFSET	-11.7	-411.3	35.4
				CHANNELS 3  Xrotation Yrotation Zrotation
				JOINT left_toes
				{
					OFFSET	0	-60	-88.6
					CHANNELS 3  Xrotation Yrotation Zrotation
					JOINT left_foot_ee
					{
						OFFSET	-22.5	-16.5	-42.2
						CHANNELS 3  Xrotation Yrotation Zrotation
						End Site
						{
							OFFSET	1	0	0
						}
					}
				}
			}
		}
	}
	JOINT right_hip
	{
		OFFSET	82.8	-127.5	0.300001
		CHANNELS 3  Xrotation Yrotation Zrotation
		JOINT right_knee
		{
			OFFSET	28.2	-396.7	2.2
			CHANNELS 3  Xrotation Yrotation Zrotation
			JOINT right_ankle
			{
				OFFSET	11.7	-411.3	35.4
				CHANNELS 3  Xrotation Yrotation Zrotation
				JOINT right_toes
				{
					OFFSET	0	-60	-88.6
					CHANNELS 3  Xrotation Yrotation Zrotation
					JOINT right_foot_ee
					{
						OFFSET	22.5	-16.5	-42.2
						CHANNELS 3  Xrotation Yrotation Zrotation
						End Site
						{
							OFFSET	1	0	0
						}
					}
				}
			}
		}
	}
}
MOTION
Frames: 15
Frame Time: 0.02
1634.7 682.945 -538.616 -169.52 -70.7699 -166.669 2.49187 -0.400974 -2.21013 2.49455 -0.259561 -2.23115 2.50426 0.117266 -2.24313 2.49732 -0.238376 -2.23352 -6.95499 2.70499 6.03241 -6.85389 0.655123 6.57766 -0.0 0.0 -0.0 4.2113 16.57 8.54586 17.2658 -17.1278 64.1053 2.74073 -53.6167 1.38514 -6.84085 -0.29066 0.824278 -0.671642 -3.62057 -6.06182 -0.0 0.0 -0.0 2.8909 14.1374 -4.4412 -27.2098 27.2592 -68.7339 0.553205 15.3254 -0.07443 34.513 0.09504 4.34185 -0.71935 -5.14285 2.57045 0.0 0.0 0.0 -11.4821 29.1679 3.95198 -8.02641 0.246313 1.20618 36.2999 -3.53868 -4.57833 -1.45169 0.0 0.0 -0.0 0.0 -0.0 40.0063 6.2847 -11.7807 -8.61804 -0.257743 -1.29625 38.5899 0.55237 4.75689 5.39087 -0.0 -0.0 0.0 0.0 0.0 
1659.67 691.793 -536.712 -170.593 -69.6134 -168.478 2.39979 -0.190193 -1.90845 2.40181 -0.0683907 -1.91668 2.40379 0.256567 -1.90067 2.39875 -0.0467704 -1.91733 -5.57415 3.13101 4.47426 -5.52064 2.44464 5.09877 -0.0 0.0 -0.0 3.73334 18.2843 7.81514 14.4627 -16.394 65.2195 2.73034 -53.5128 1.37678 -6.56855 -0.277218 0.792156 -0.506074 -3.66494 -4.96192 -0.0 0.0 -0.0 2.95194 13.2663 -4.64781 -26.2562 27.2859 -68.1323 0.591402 16.3288 -0.084848 35.4894 0.135672 4.45986 -0.779078 -6.06159 2.56203 0.0 0.0 0.0 -11.7578 28.7051 3.78152 -10.9597 0.293836 1.65373 32.1346 -3.41588 -4.16655 0.651464 -0.0 -0.0 -0.0 0.0 -0.0 37.69 6.90792 -10.3992 -9.89448 -0.279229 -1.49093 41.3675 0.416196 4.99451 8.51805 -0.0 -0.0 0.0 0.0 0.0 
1679.66 699.693 -529.434 -171.636 -70.1033 -169.533 2.20338 -0.271284 -1.97897 2.20555 -0.144833 -1.99221 2.2104 0.200667 -1.98737 2.20491 -0.115655 -1.99412 -6.35913 3.07535 4.02639 -6.31613 2.74533 4.63994 -0.0 0.0 -0.0 3.37805 19.5151 7.29649 12.0849 -16.2527 67.3103 2.71903 -53.3992 1.3677 -6.32073 -0.265117 0.762866 -0.335473 -2.70798 -3.40039 -0.0 0.0 -0.0 3.20427 12.2163 -5.26884 -24.504 26.9045 -68.2252 0.538037 14.9242 -0.0704722 36.3673 0.173924 4.56539 -0.880519 -7.14387 2.75053 0.0 0.0 0.0 -11.9667 28.3833 3.72119 -13.8559 0.318226 2.09738 28.6646 -4.64189 -3.8123 1.99937 -0.0 -0.0 -0.0 0.0 -0.0 36.032 7.01982 -9.94285 -10.7832 -0.291625 -1.62673 40.6846 -0.122062 4.93337 11.2056 -0.0 -0.0 0.0 0.0 0.0 
1700.92 696.888 -525.906 -172.164 -70.1929 -170.184 2.08301 -0.402585 -1.98636 2.08516 -0.275398 -2.00794 2.09477 0.0787754 -2.0252 2.08913 -0.241989 -2.01223 -6.90966 3.00699 3.62394 -6.87527 2.95889 4.22836 -0.0 0.0 -0.0 2.8891 20.1005 6.58485 10.7728 -16.5661 68.4406 2.62375 -52.4167 1.29169 -5.29985 -0.216611 0.641675 -0.169599 -0.451332 -1.32425 -0.0 0.0 -0.0 3.40077 12.1286 -5.68813 -22.5234 26.7528 -67.3175 0.512941 14.2571 -0.0641502 37.4512 0.223374 4.69484 -0.967114 -8.52904 2.70256 0.0 0.0 0.0 -11.99 28.3572 2.62585 -16.2905 0.321363 2.47089 24.3222 -4.26105 -3.31216 3.16176 -0.0 -0.0 -0.0 0.0 -0.0 35.0317 7.24102 -9.13621 -10.7941 -0.291764 -1.6284 39.9128 -0.467718 4.86517 12.9675 -0.0 -0.0 0.0 0.0 0.0 
1699.98 699.957 -519.376 164.615 -77.0246 167.385 -1.18969 0.052353 -2.25118 -1.18689 0.195459 -2.24329 -1.19278 0.70761 -2.13777 -1.19897 0.361197 -2.22264 -4.55776 1.12531 4.73276 -4.49189 -1.52698 5.03343 -0.0 0.0 -0.0 5.15988 5.26198 10.0898 15.0446 -5.34449 67.7865 2.53752 -51.4881 1.22378 -52.7598 -4.39854 4.8194 -2.1707 1.35232 -14.0153 -0.0 0.0 -0.0 2.94942 6.75096 -5.18838 -14.0292 25.1198 -67.2159 0.501885 13.9619 -0.0614549 14.3519 -0.28065 1.80707 -1.87697 -21.5454 2.35222 0.0 0.0 0.0 -17.6815 23.623 0.665604 -14.5845 0.320829 2.20915 36.8195 4.20122 -4.57261 -6.60322 0.0 0.0 -0.0 0.0 -0.0 26.6427 8.61577 -7.66508 -10.7712 -0.291472 -1.6249 36.0382 13.9014 4.76531 -27.0364 0.0 0.0 0.0 0.0 0.0 
1728.19 707.517 -512.318 164.424 -76.9959 167.236 -1.25184 -0.0464178 -2.22689 -1.24909 0.0953437 -2.22534 -1.25086 0.608156 -2.14279 -1.25717 0.262198 -2.2119 -2.4196 2.44195 5.212 -2.34515 0.312345 5.79084 -0.0 0.0 -0.0 4.3935 5.18137 8.669 11.9203 -6.28272 69.3322 2.12002 -46.3968 0.908659 -52.964 -4.42296 4.82887 -1.97884 1.2 -12.7737 -0.0 0.0 -0.0 3.24943 7.85318 -5.71492 -11.3555 24.8309 -67.8275 0.444978 12.4311 -0.0484625 15.0546 -0.282686 1.8968 -1.85494 -22.5057 1.76388 0.0 0.0 0.0 -14.2766 23.6595 -0.595428 -18.4321 0.311003 2.79929 34.4075 4.58734 -4.34127 -5.78911 0.0 0.0 -0.0 0.0 -0.0 24.1583 8.27907 -8.43838 -10.8785 -0.292829 -1.6413 37.3836 16.102 4.96316 -26.5984 0.0 0.0 0.0 0.0 0.0 
1750.83 704.532 -506.96 163.879 -76.458 166.526 -1.20412 -0.027574 -2.15126 -1.20155 0.10934 -2.14865 -1.2039 0.602309 -2.06544 -1.20976 0.268631 -2.1346 -0.810603 3.25578 4.59965 -0.755628 2.11164 5.27854 -0.0 0.0 -0.0 3.28964 4.86927 6.61954 9.40486 -7.03078 71.7382 1.89062 -43.1192 0.747066 -53.0389 -4.43193 4.83232 -1.79081 1.09622 -11.5408 -0.0 0.0 -0.0 3.44962 8.72057 -6.05994 -9.30163 24.6131 -68.5141 0.378323 10.6149 -0.0351456 15.6176 -0.283523 1.96871 -1.85977 -23.4804 1.32585 0.0 0.0 0.0 -14.0968 22.4364 -1.14261 -21.9182 0.267918 3.33238 34.2217 4.05678 -4.32392 -4.90015 0.0 0.0 -0.0 0.0 -0.0 22.2735 8.5869 -8.7234 -10.8208 -0.292103 -1.63248 38.3359 18.1076 5.12456 -26.2082 0.0 0.0 0.0 0.0 0.0 
1769.33 706.627 -503.012 161.284 -76.2798 163.596 -1.2321 -0.179093 -2.09081 -1.22967 -0.0457159 -2.09797 -1.2261 0.440431 -2.05175 -1.23196 0.110943 -2.09553 -0.128695 4.89556 4.19108 -0.0756984 5.30594 5.02438 -0.0 0.0 -0.0 3.19155 3.96818 6.38906 6.99769 -7.6218 72.1598 1.46047 -35.8826 0.472905 -51.4963 -4.24814 4.75887 -1.60215 0.413312 -10.574 -0.0 0.0 -0.0 3.78206 10.5572 -6.60939 -7.60025 24.5798 -68.4717 0.330586 9.30056 -0.0268905 16.2616 -0.283614 2.05095 -1.78021 -24.0823 0.585991 0.0 0.0 0.0 -11.1142 22.6376 -2.78941 -28.7825 0.0887689 4.36995 34.5558 4.05426 -4.35671 -5.00157 0.0 0.0 -0.0 0.0 -0.0 19.2781 8.9723 -8.50835 -8.74181 -0.260016 -1.31511 37.7977 20.7607 5.18209 -26.401 0.0 0.0 0.0 0.0 0.0 
1787.17 710.548 -500.564 161.099 -74.6034 163.596 -1.42407 -0.0764493 -1.97032 -1.42191 0.0490575 -1.97119 -1.42195 0.509882 -1.90476 -1.42695 0.202722 -1.96136 -0.443192 5.7281 4.0934 -0.38329 6.91086 5.01407 -0.0 0.0 -0.0 2.68013 5.26397 5.5228 4.61121 -9.99612 73.203 1.25818 -31.9324 0.359986 -51.0848 -4.19945 4.73843 -1.33796 -0.00398612 -8.97347 -0.0 0.0 -0.0 4.15996 13.147 -7.20361 -5.34512 24.2276 -68.6163 0.307169 8.6521 -0.0232367 17.1202 -0.282298 2.16061 -1.6774 -24.5885 -0.234093 0.0 0.0 0.0 -9.2916 23.4086 -4.69711 -36.0631 -0.235485 5.43928 33.5303 4.40735 -4.25468 -5.3289 0.0 0.0 -0.0 0.0 -0.0 17.2115 9.33423 -8.55375 -8.39873 -0.253614 -1.26285 34.7695 24.5198 5.0531 -25.4072 0.0 0.0 0.0 0.0 0.0 
1802.52 710.595 -494.494 159.231 -74.2566 161.598 -1.5914 -0.0935141 -2.10011 -1.58895 0.0402806 -2.1018 -1.58844 0.537904 -2.03223 -1.59414 0.210275 -2.09165 0.167959 6.47193 3.27105 0.234557 8.83897 4.19177 -0.0 0.0 -0.0 2.36014 5.59401 4.96029 2.20469 -11.349 73.9674 1.09384 -28.4504 0.277303 -50.8261 -4.1689 4.72541 -1.09878 -0.337356 -7.50756 -0.0 0.0 -0.0 4.41971 15.3605 -7.57989 -2.98719 24.195 -68.7095 0.293702 8.27814 -0.0212541 17.8523 -0.279877 2.25409 -1.64283 -25.0925 -0.6626 0.0 0.0 0.0 -6.48065 23.2404 -6.59906 -42.2077 -0.613159 6.30453 33.5771 5.11351 -4.25846 -5.66634 0.0 0.0 -0.0 0.0 -0.0 15.0212 9.80342 -8.34477 -7.85957 -0.242922 -1.1808 32.7532 27.9021 5.01322 -25.3146 0.0 0.0 0.0 0.0 0.0 
1818.79 708.354 -493.065 156.872 -73.9227 159.545 -1.75472 -0.0389419 -2.10595 -1.75226 0.0951138 -2.10416 -1.75375 0.597596 -2.01979 -1.75934 0.271182 -2.08878 -0.770086 7.08207 3.81155 -0.693318 9.60904 4.87445 -0.0 0.0 -0.0 2.06883 7.1267 4.54407 0.202917 -12.9305 75.3167 0.987253 -26.0607 0.228482 -50.6702 -4.15053 4.7175 -0.859283 -0.52842 -5.9794 -0.0 0.0 -0.0 4.67181 17.0962 -7.97729 -0.913793 24.2671 -68.5085 0.291506 8.2171 -0.0209392 18.4674 -0.276921 2.33259 -1.58032 -25.3228 -1.11943 0.0 0.0 0.0 -4.91335 23.0905 -8.07585 -47.3677 -1.00072 6.99711 31.4209 5.79584 -4.03807 -6.64104 0.0 0.0 -0.0 0.0 -0.0 13.035 10.1269 -7.65124 -7.44964 -0.234275 -1.11849 30.5739 30.2015 4.89073 -25.9879 0.0 0.0 0.0 0.0 0.0 
1833.54 707.439 -486.047 154.098 -74.0427 156.367 -1.99791 -0.220166 -1.79002 -1.99614 -0.105835 -1.8004 -1.99099 0.336779 -1.77179 -1.99536 0.0527786 -1.80273 -1.71493 7.00764 4.25379 -1.63944 9.24732 5.37448 -0.0 0.0 -0.0 1.82664 7.03238 4.10336 -2.22215 -13.1968 75.4959 0.903252 -24.1056 0.192866 -50.4532 -4.125 4.7064 -0.533967 -2.82993 -4.7898 -0.0 0.0 -0.0 4.08479 18.231 -6.62072 2.39365 25.4269 -70.0393 0.514623 14.3019 -0.064565 19.0605 -0.273272 2.40826 -1.58718 -25.9201 -1.35435 0.0 0.0 0.0 -2.74281 22.8546 -9.92977 -50.8332 -1.29551 7.44179 33.214 5.95998 -4.2218 -8.61614 0.0 0.0 -0.0 0.0 -0.0 10.0387 10.7365 -7.5295 -4.51072 -0.159261 -0.673762 25.2426 30.6532 4.21574 -26.4956 0.0 0.0 0.0 0.0 0.0 
1843.71 710.744 -483.916 153.7 -74.0012 155.084 -1.96773 -0.209802 -1.37142 -1.96669 -0.122118 -1.38199 -1.96264 0.218152 -1.37012 -1.96526 -0.000948456 -1.38737 -3.20136 6.59003 4.18539 -3.13841 8.74213 5.31078 -0.0 0.0 -0.0 1.53097 7.4421 3.60895 -4.24588 -13.6458 75.5652 0.815023 -21.9857 0.158321 -49.7702 -4.04488 4.67083 -0.319905 -3.33535 -3.5645 -0.0 0.0 -0.0 4.05595 18.0202 -6.57748 5.00005 26.2088 -70.1037 0.661809 18.1513 -0.105718 19.3474 -0.271226 2.44485 -1.70148 -26.3635 -0.924071 0.0 0.0 0.0 -1.11527 22.4919 -10.5186 -53.2692 -1.51865 7.74348 30.5474 6.51831 -3.94642 -9.69823 0.0 0.0 -0.0 0.0 -0.0 7.79984 11.3179 -6.48477 -2.19946 -0.0842916 -0.326998 21.3522 28.0066 3.53352 -27.2008 0.0 0.0 0.0 0.0 0.0 
1850.73 715.597 -482.429 154.741 -72.6798 156.191 -2.07218 -0.149346 -1.09231 -2.07152 -0.0795415 -1.0996 -2.06929 0.192684 -1.08551 -2.07093 0.0188415 -1.10231 -3.05714 6.21169 3.76383 -3.00317 8.36357 4.8126 -0.0 0.0 -0.0 1.44125 7.43541 3.4486 -6.27621 -13.9656 75.8184 0.67729 -18.5472 0.110591 -50.412 -4.12015 4.70428 -0.187866 -1.67556 -1.96745 -0.0 0.0 -0.0 3.91818 18.8263 -6.20948 6.34679 26.6984 -70.4544 0.812143 21.9154 -0.157245 19.4976 -0.270081 2.46401 -1.54444 -25.7602 -1.51963 0.0 0.0 0.0 0.81377 23.0715 -11.1163 -52.546 -1.45106 7.65489 30.917 7.65411 -3.98688 -11.748 0.0 0.0 -0.0 0.0 -0.0 6.38265 11.5546 -6.83893 -0.90189 -0.0360842 -0.133701 20.6051 28.603 3.45013 -27.2772 0.0 0.0 0.0 0.0 0.0 
1860.08 717.727 -480.18 154.862 -72.0298 156.412 -2.09918 -0.19508 -0.831675 -2.09881 -0.141765 -0.842402 -2.09626 0.0696443 -0.851403 -2.09727 -0.065688 -0.851718 -3.84066 5.44848 3.25515 -3.80248 7.45257 4.20563 -0.0 0.0 -0.0 1.91548 8.25708 4.35587 -7.87046 -13.7395 74.5863 0.484969 -13.5089 0.0574384 -49.3183 -3.99211 4.64677 -0.186735 -0.85676 -1.61128 -0.0 0.0 -0.0 3.63456 18.1652 -5.6607 9.17886 27.4926 -70.7941 1.10764 28.7524 -0.283912 19.334 -0.271325 2.44315 -1.6087 -24.72 -0.683077 0.0 0.0 0.0 2.48551 21.1936 -10.4492 -51.8852 -1.39029 7.57322 33.0631 9.7334 -4.21644 -13.5675 0.0 0.0 -0.0 0.0 -0.0 5.0403 12.3895 -7.25102 0.254887 0.0105796 0.0376837 18.3115 26.7285 3.03644 -27.4989 0.0 0.0 0.0 0.0 0.0 
